PathFileType	4	(X/Y/Z)	C:/Users/opensim2020/Desktop/walking_exp_matlab/subject03_walking09_straight_04.trc	
DataRate	CameraRate	NumFrames	NumMarkers	Units	OrigDataRate	OrigDataStartFrame	OrigNumFrames	
100.00	100.00	6	47	mm	100.00	3965	353	
Frame#	Time	LFHD			RFHD			LBHD			RBHD			C7			T10			CLAV			STRN			RBAK			LSHO			LUPA			LELB			LFRM			LWRA			LWRB			LFIN			RSHO			RUPA			RELB			RFRM			RWRA			RWRB			RFIN			LASI			RASI			LPSI			RPSI			LTHI			LKNE			LTIB			LANK			LHEE			LTOE			RTHI			RKNE			RTIB			RANK			RHEE			RTOE			*39			*40			*41			*42			*43			*44			*45			*46			
		X1	Y1	Z1	X2	Y2	Z2	X3	Y3	Z3	X4	Y4	Z4	X5	Y5	Z5	X6	Y6	Z6	X7	Y7	Z7	X8	Y8	Z8	X9	Y9	Z9	X10	Y10	Z10	X11	Y11	Z11	X12	Y12	Z12	X13	Y13	Z13	X14	Y14	Z14	X15	Y15	Z15	X16	Y16	Z16	X17	Y17	Z17	X18	Y18	Z18	X19	Y19	Z19	X20	Y20	Z20	X21	Y21	Z21	X22	Y22	Z22	X23	Y23	Z23	X24	Y24	Z24	X25	Y25	Z25	X26	Y26	Z26	X27	Y27	Z27	X28	Y28	Z28	X29	Y29	Z29	X30	Y30	Z30	X31	Y31	Z31	X32	Y32	Z32	X33	Y33	Z33	X34	Y34	Z34	X35	Y35	Z35	X36	Y36	Z36	X37	Y37	Z37	X38	Y38	Z38	X39	Y39	Z39	X40	Y40	Z40	X41	Y41	Z41	X42	Y42	Z42	X43	Y43	Z43	X44	Y44	Z44	X45	Y45	Z45	X46	Y46	Z46	X47	Y47	Z47	

221	2.200	1494.29749	-211.70142	1622.60071	1362.37622	-192.22517	1621.38684	1509.28711	-82.84995	1583.51794	1378.69348	-68.67786	1582.11609	1455.04260	-41.93475	1419.37524	1455.90601	-10.28803	1104.64526	1449.29321	-164.87137	1342.92407	1459.23938	-210.39920	1179.36938	1363.31433	12.74569	1240.47144	1605.39209	-127.13721	1383.70007	1678.11414	-130.20309	1188.26514	1688.59363	-145.40361	1065.48450	1682.52405	-191.83224	944.20380	1645.50793	-231.36797	834.22278	1696.59485	-208.85791	831.60730	1681.93237	-239.59305	753.88458	1291.13440	-112.40106	1362.83337	1228.35950	-109.83344	1136.82605	1223.22742	-123.89227	1023.97150	1227.51111	-136.94977	887.72601	1268.66577	-162.64378	792.32324	1222.40637	-133.55779	788.11981	1232.90723	-150.12758	715.68262	1576.59546	-170.71494	937.09375	1340.13635	-184.78136	946.36493	1517.12219	-11.70776	962.59937	1369.23059	-22.07880	975.47284	1621.64282	-89.60833	633.18622	1600.84631	-74.27206	453.50232	1590.05835	77.86227	322.59485	1543.34839	216.50417	168.13274	1502.40881	262.94388	179.29320	1500.91821	153.85858	34.23150	1297.73108	-156.58209	653.28992	1338.76123	-192.18422	475.99124	1337.12024	-172.81845	287.58301	1387.42615	-178.24458	72.16019	1440.61377	-135.31636	40.28772	1398.70288	-319.76199	38.50153																								 
222	2.210	1493.97229	-220.15559	1622.75623	1362.03101	-200.83649	1621.51453	1508.80615	-91.29548	1583.70703	1378.19226	-77.29156	1582.29858	1454.36243	-50.40628	1419.47449	1454.60535	-18.98560	1104.64490	1448.88708	-173.39816	1343.00305	1458.91565	-219.03546	1179.48132	1362.09448	3.67441	1240.46875	1604.93555	-135.23569	1383.64404	1677.41724	-137.45300	1188.09351	1687.89929	-151.51782	1065.17163	1682.51306	-195.80659	942.99915	1646.09399	-233.28682	831.98712	1697.14136	-210.64531	830.08142	1682.46362	-239.05577	751.21521	1290.56494	-121.54500	1363.08203	1227.33630	-119.93837	1137.19470	1221.97473	-134.40802	1024.45947	1226.28406	-148.59795	888.32330	1267.38428	-174.76883	793.35681	1220.89111	-145.60889	788.65717	1231.49463	-162.92046	716.48230	1576.12732	-178.81729	936.96191	1339.71497	-193.71481	946.29041	1516.17114	-19.75332	962.18768	1368.42664	-30.76125	976.01959	1623.05286	-101.71423	632.04175	1602.31885	-91.44769	452.21643	1591.97351	61.58003	323.72885	1545.40771	203.63773	173.31221	1505.11011	250.03874	187.53090	1502.64160	148.44676	37.06265	1297.33643	-162.41335	653.48810	1337.95776	-197.45920	475.85205	1336.57434	-175.95142	287.57547	1387.34705	-178.45140	72.09860	1440.45862	-135.16531	40.34583	1398.69128	-319.83118	38.39577																								 
223	2.220	1493.77515	-228.60437	1622.90002	1361.76111	-209.49092	1621.65332	1508.39160	-99.71430	1583.75684	1377.73059	-85.93713	1582.33984	1453.53003	-58.95135	1419.35608	1453.48169	-27.56413	1104.62988	1448.57349	-181.95955	1343.04980	1458.72693	-227.48460	1179.35278	1360.73767	-5.29468	1240.31970	1604.61194	-143.23051	1383.44116	1676.74304	-144.49857	1187.63818	1687.33655	-157.63193	1064.60059	1682.55237	-199.71790	941.60486	1646.76086	-235.17941	829.65692	1697.74036	-212.15005	828.40521	1683.17529	-238.59302	748.55841	1290.06445	-130.79614	1363.09790	1226.20679	-129.96002	1137.38477	1220.55237	-144.85399	1024.72510	1224.78589	-160.07043	888.76727	1265.83752	-187.09340	793.96960	1219.61768	-157.79236	789.03064	1229.90833	-176.10559	717.10822	1575.72742	-186.55290	936.52100	1339.35437	-202.43149	946.33124	1515.41101	-27.61035	961.42627	1367.66357	-39.22785	976.42883	1623.09961	-115.04907	630.95911	1603.56091	-108.81768	451.09174	1594.03955	44.76274	324.54721	1546.59595	191.00842	178.74823	1506.87573	236.80919	194.64209	1505.39014	139.58255	40.95845	1296.75525	-169.02730	653.58380	1337.24963	-202.71922	475.83640	1336.28088	-179.03194	287.56366	1387.35144	-178.45541	72.10512	1440.35303	-135.16209	40.29956	1398.70923	-319.89883	38.30061																								 
224	2.230	1493.57361	-236.93913	1622.94421	1361.56689	-218.11772	1621.78284	1507.99048	-108.09264	1583.71704	1377.26355	-94.56318	1582.37659	1452.69885	-67.48173	1419.21558	1452.52649	-35.93107	1104.57910	1448.43384	-190.36850	1342.99475	1458.58728	-235.66818	1179.16553	1359.48315	-14.07825	1240.26892	1604.41467	-151.03352	1383.08215	1676.13086	-151.39095	1187.01038	1686.78223	-163.63329	1063.82495	1682.67688	-203.74106	940.07379	1647.51917	-237.07634	827.31653	1698.55432	-214.25270	826.85522	1684.00452	-238.23189	746.03101	1289.62329	-139.94693	1362.92834	1225.10876	-139.99533	1137.40112	1218.98364	-155.39128	1024.90442	1223.17017	-171.51321	889.00787	1264.19470	-198.72112	794.13916	1217.92590	-170.03783	789.34998	1227.96155	-188.95424	717.66449	1575.47815	-194.07791	935.98071	1338.97363	-210.92227	946.45215	1514.63440	-35.45927	960.43481	1367.04871	-47.40475	976.79419	1624.38306	-126.80768	630.08807	1604.61194	-126.51661	450.18317	1595.64661	27.59291	325.55325	1548.01038	177.39066	183.99419	1507.66174	223.25406	200.52556	1509.00781	127.52383	45.20513	1295.78418	-176.15651	654.06317	1336.66516	-207.76389	475.74921	1335.98511	-182.08902	287.54285	1387.52234	-178.62247	72.23932	1439.96680	-134.89958	40.26566	1398.74463	-319.92020	38.22564																								 
225	2.240	1493.43884	-245.35269	1623.00146	1361.40149	-226.68443	1621.88916	1507.55542	-116.71382	1583.62256	1376.94910	-103.24505	1582.30042	1452.18433	-76.02180	1419.36206	1451.77283	-43.99670	1104.79211	1448.26416	-198.73453	1342.99377	1458.58557	-243.86662	1178.97314	1358.28308	-22.74345	1240.39905	1604.28491	-158.63123	1382.66333	1675.60034	-158.03072	1186.26794	1686.34204	-169.60576	1063.01685	1682.78174	-207.64743	938.54352	1648.28516	-238.92822	824.95648	1699.44800	-216.04562	825.29156	1685.03027	-238.09843	743.69073	1289.22583	-149.18196	1362.80554	1224.08862	-150.05907	1137.40479	1217.38159	-166.02119	1024.93933	1221.47253	-183.15485	889.19281	1262.33167	-211.31873	794.81604	1216.03833	-182.27524	789.54187	1225.80652	-202.27690	718.23071	1575.33545	-201.45757	935.37396	1338.60962	-219.13469	946.57306	1514.27039	-42.79372	959.71692	1366.44360	-55.39965	977.03815	1623.96448	-140.20117	629.81488	1605.49988	-144.46814	449.76773	1596.38123	10.30279	327.15305	1548.34167	163.03081	189.42442	1507.83960	208.90959	205.24542	1513.00354	113.38278	48.90092	1295.66418	-182.52641	654.17444	1336.25842	-212.72577	475.70715	1335.90063	-184.93423	287.52686	1387.66284	-178.67677	72.26240	1440.22717	-135.06894	40.45810	1398.78870	-319.96109	38.18063																								 
226	2.250	1493.37598	-253.75650	1623.06848	1361.33386	-235.35115	1621.99561	1507.37170	-125.00279	1583.50586	1376.64050	-111.92222	1582.21484	1451.50537	-84.47745	1419.61389	1451.06604	-52.00359	1104.89258	1448.24780	-206.99191	1342.78503	1458.68811	-251.93486	1178.74890	1357.23718	-31.17675	1240.74182	1604.24243	-166.11797	1382.27283	1675.16992	-164.37286	1185.55261	1686.00879	-175.40550	1062.26074	1682.97144	-211.52318	937.11963	1649.14966	-240.85197	822.69971	1700.19006	-218.00172	823.75897	1686.18958	-238.13219	741.58698	1288.86108	-158.44463	1362.60681	1223.08923	-160.24733	1137.31091	1215.83252	-176.73837	1024.96033	1219.69666	-194.73877	889.30188	1260.34875	-223.33733	794.76929	1214.11060	-194.62766	789.74103	1223.76965	-215.17596	718.66833	1575.23230	-208.93835	934.95306	1338.23303	-227.13394	946.81995	1513.66699	-50.45466	958.73035	1365.92249	-63.19486	977.20398	1624.40881	-152.62953	629.94794	1606.32666	-162.60603	449.92578	1596.69714	-7.06173	329.22882	1548.58057	147.35498	193.89027	1507.33521	193.56458	208.71771	1517.80457	96.54357	52.85352	1295.65430	-189.54732	653.98627	1336.01880	-217.63477	475.58307	1335.98010	-187.74081	287.45676	1387.82764	-178.67787	72.29088	1440.36560	-135.03493	40.36357	1398.83154	-319.99054	38.11216																								 
